<?xml version="1.0" standalone="no"?>
<!DOCTYPE svg PUBLIC "-//W3C//DTD SVG 20010904//EN"
 "http://www.w3.org/TR/2001/REC-SVG-20010904/DTD/svg10.dtd">
<svg version="1.0" xmlns="http://www.w3.org/2000/svg"
 width="222.000000pt" height="222.000000pt" viewBox="0 0 222.000000 222.000000"
 preserveAspectRatio="xMidYMid meet">
<metadata>
Created by potrace 1.11, written by Peter Selinger 2001-2013
</metadata>
<g transform="translate(0.000000,222.000000) scale(0.100000,-0.100000)"
fill="#000000" stroke="none">
<path d="M12 2148 c-17 -17 -17 -2069 0 -2086 19 -19 2181 -17 2197 2 16 19
15 2064 -1 2083 -15 18 -2178 19 -2196 1z m1967 -262 c35 -48 61 -89 58 -92
-5 -5 -128 -23 -342 -48 -66 -8 -300 -38 -520 -65 -220 -28 -403 -51 -407 -51
-12 0 -48 -38 -48 -50 0 -9 148 -208 362 -487 43 -56 78 -106 78 -110 0 -21
-66 -163 -76 -163 -6 0 -112 129 -235 288 -123 158 -285 367 -361 464 -76 98
-138 184 -138 191 0 10 17 16 52 21 76 9 227 28 898 116 327 42 600 77 605 75
6 -1 39 -41 74 -89z m-1488 -479 c609 -785 578 -747 608 -747 16 0 33 6 38 13
5 6 42 91 82 187 155 375 195 465 208 477 18 14 172 28 183 17 4 -5 -18 -70
-50 -144 -32 -74 -102 -238 -155 -365 -212 -503 -248 -585 -259 -584 -6 0
-164 198 -351 440 -187 242 -404 522 -482 622 -79 100 -143 189 -143 197 0 25
72 180 84 180 6 -1 113 -132 237 -293z m1563 274 c3 -4 -30 -91 -73 -192 -43
-101 -122 -287 -176 -414 -297 -702 -348 -821 -356 -829 -12 -13 -182 -37
-192 -27 -5 5 -2 22 6 37 8 16 31 67 50 114 19 47 78 189 132 315 87 207 126
299 264 627 73 173 72 174 -229 138 -91 -11 -230 -27 -310 -35 -80 -8 -155
-17 -167 -20 -17 -4 -32 8 -72 60 -28 35 -51 69 -51 75 0 14 1 14 490 75 245
31 488 62 540 69 121 17 138 18 144 7z m-759 -360 c8 -14 -76 -211 -90 -211
-18 0 -146 173 -135 184 4 4 48 14 97 21 113 17 121 17 128 6z"/>
</g>
</svg>
